<?xml version="1.0"?><svg width="808.77936" height="333.51727" xmlns="http://www.w3.org/2000/svg" xmlns:xlink="http://www.w3.org/1999/xlink">
 <title>Blue Glossy</title>
 <defs>
  <linearGradient id="linearGradient3037-1">
   <stop stop-color="#ffffff" offset="0" id="stop3039-49"/>
   <stop stop-color="#ffffff" stop-opacity="0" offset="1" id="stop3041-1"/>
  </linearGradient>
  <linearGradient xlink:href="#linearGradient3037-1" id="linearGradient5748" y2="1.438977" x2="0.272727" y1="-0.572748" x1="0.272727"/>
  <linearGradient id="svg_12" x2="0" y2="0.318359" x1="0" y1="1">
   <stop stop-color="#fcfcfc" offset="0.300781"/>
   <stop stop-color="#5293d3" stop-opacity="0.992188" offset="1"/>
  </linearGradient>
  <linearGradient id="svg_15" x2="0.011719" y2="0.376953" x1="0" y1="1">
   <stop stop-color="#fcfcfc" offset="0.195313"/>
   <stop stop-color="#355f89" stop-opacity="0.996094" offset="1"/>
  </linearGradient>
 </defs>
 <metadata id="metadata4">image/svg+xml</metadata>
 <g>
  <title>Layer 1</title>
  <path fill="#59a5f2" id="rect3151" d="m719.18457,314.369293l-652.642761,0c-25.522079,0 -46.06885,-20.546753 -46.06885,-46.068848l0,-214.988144c0,-25.522272 20.546759,-46.069032 46.06885,-46.069032l652.642761,0c25.522034,0 46.068848,20.54676 46.068848,46.069032l0,214.988144c0,25.522095 -20.546814,46.068848 -46.068848,46.068848z"/>
  <path opacity="0.33" fill="url(#svg_15)" id="path3093" d="m709.133972,15.740935c-221.340973,3.959306 -442.810974,-2.983602 -664.094372,3.477445c-26.3417,14.858295 -16.854,49.475849 -16.887901,73.873043c1.171902,64.716911 -5.3734,130.414955 4.030102,194.457466c17.627499,23.176575 51.7062,11.864716 77.020203,14.071106c209.312004,-2.601135 418.897972,2.218475 628.045982,-2.323212c25.210022,-11.316895 21.012024,-43.49324 18.710999,-65.790695c-1.842957,-67.796677 6.194031,-136.769249 -4.605957,-203.761318c-9.041016,-13.356421 -27.330017,-14.606738 -42.219055,-14.003835l0,0z"/>
  <path opacity="0.33" fill="url(#svg_12)" d="m707.561646,84.135727c-219.827209,2.799965 -439.782654,-2.109879 -659.553104,2.459213c-26.161541,10.507431 -16.738651,34.988205 -16.772341,52.241318c1.163858,45.766296 -5.336639,92.226807 4.002501,137.515671c17.506981,16.390137 51.352631,8.39093 76.493439,9.950897c207.880989,-1.839081 416.033363,1.569244 623.751625,-1.642944c25.037476,-8.002563 20.868103,-30.756943 18.583008,-46.525269c-1.830017,-47.944855 6.151367,-96.720383 -4.57428,-144.09565c-8.978943,-9.445396 -27.143433,-10.329552 -41.930847,-9.903236z" id="svg_10"/>
  <path fill="url(#linearGradient5748)" id="path3159" d="m714.598999,17.056101c-217.235992,3.098 -434.848999,-0.438101 -651.879498,1.848099c-30.5961,-2.0546 -39.915201,42.1444 -34.249302,71.152098c0.2444,10.9897 0.2679,22.007706 0.285301,33.034706c64.649002,36.888992 145.994499,67.569 234.893486,63.643997c136.679016,-6.033997 352.879028,-56.589005 489.862,-91.942902c-0.537964,-17.852501 -1.411011,-35.6563 -2.950012,-53.363998c-6.526001,-16.128601 -22.040955,-23.850201 -35.960999,-24.372l-0.000977,0z"/>
 </g>
</svg>